<?xml version="1.0" encoding="UTF-8" standalone="no"?>
<svg
   xmlns:dc="http://purl.org/dc/elements/1.1/"
   xmlns:cc="http://creativecommons.org/ns#"
   xmlns:rdf="http://www.w3.org/1999/02/22-rdf-syntax-ns#"
   xmlns:svg="http://www.w3.org/2000/svg"
   xmlns="http://www.w3.org/2000/svg"
   xmlns:sodipodi="http://sodipodi.sourceforge.net/DTD/sodipodi-0.dtd"
   xmlns:inkscape="http://www.inkscape.org/namespaces/inkscape"
   width="32"
   height="32"
   viewBox="0 0 32 32"
   fill="none"
   version="1.1"
   id="svg4"
   sodipodi:docname="sd_button_menu.svg"
   inkscape:version="1.0.2-2 (e86c870879, 2021-01-15)">
  <metadata
     id="metadata10">
    <rdf:RDF>
      <cc:Work
         rdf:about="">
        <dc:format>image/svg+xml</dc:format>
        <dc:type
           rdf:resource="http://purl.org/dc/dcmitype/StillImage" />
        <dc:title></dc:title>
      </cc:Work>
    </rdf:RDF>
  </metadata>
  <defs
     id="defs8" />
  <sodipodi:namedview
     pagecolor="#121728"
     bordercolor="#666666"
     borderopacity="1"
     objecttolerance="10"
     gridtolerance="10"
     guidetolerance="10"
     inkscape:pageopacity="0"
     inkscape:pageshadow="2"
     inkscape:window-width="2498"
     inkscape:window-height="1421"
     id="namedview6"
     showgrid="false"
     inkscape:zoom="31.500001"
     inkscape:cx="12.745656"
     inkscape:cy="15.789615"
     inkscape:window-x="2617"
     inkscape:window-y="-5"
     inkscape:window-maximized="1"
     inkscape:current-layer="svg4"
     inkscape:document-rotation="0" />
  <g
     id="g857"
     inkscape:label="working"
     style="display:none">
    <path
       fill-rule="evenodd"
       clip-rule="evenodd"
       d="M 7.33333,8.66663 C 3.28324,8.66663 0,11.9499 0,16 c 0,4.05 3.28325,7.3333 7.33333,7.3333 H 24.6667 C 28.7168,23.3333 32,20.05 32,16 32,11.9499 28.7168,8.66663 24.6667,8.66663 Z M 20.6667,11.7222 h -9.3334 v 1.7111 h 9.3334 z m -9.3334,6.8445 h 9.3334 v 1.7111 h -9.3334 z m 9.3334,-3.4223 h -9.3334 v 1.7111 h 9.3334 z"
       fill="#ffffff"
       id="path2"
       inkscape:label="vanilla"
       style="display:none" />
    <rect
       style="fill:#fefefe;fill-opacity:1;fill-rule:evenodd;stroke-width:3;stroke-linecap:round;stroke-linejoin:round;stroke-miterlimit:9;stop-color:#000000"
       id="rect837"
       width="32"
       height="14.667"
       x="0"
       y="8.6669998"
       ry="7.3334999"
       inkscape:label="bg" />
    <text
       xml:space="preserve"
       style="font-size:12px;line-height:1.25;font-family:'Century Gothic';-inkscape-font-specification:'Century Gothic';letter-spacing:0px;word-spacing:0px;display:inline;fill:#000000;fill-opacity:1;stroke:none;stroke-opacity:1"
       x="1.2958984"
       y="20.259766"
       id="text871"
       inkscape:label="text"><tspan
         sodipodi:role="line"
         id="tspan869"
         x="1.2958984"
         y="20.259766"
         style="font-style:normal;font-variant:normal;font-weight:bold;font-stretch:semi-condensed;font-size:12px;font-family:Bahnschrift;-inkscape-font-specification:'Bahnschrift Bold Semi-Condensed'"
         rotate="0 0 0 0 0 0">START</tspan></text>
  </g>
  <path
     id="rect835"
     style="fill:#fefefe;fill-opacity:1;fill-rule:evenodd;stroke-width:3;stroke-linecap:round;stroke-linejoin:round;stroke-miterlimit:9;stop-color:#000000"
     inkscape:label="bg"
     d="M 7.3339844 8.6679688 C 3.2712254 8.6679688 0 11.937241 0 16 C 0 20.062759 3.2712254 23.333984 7.3339844 23.333984 L 24.666016 23.333984 C 28.728775 23.333984 32 20.062759 32 16 C 32 11.937241 28.728775 8.6679688 24.666016 8.6679688 L 7.3339844 8.6679688 z M 4.5117188 11.652344 C 4.9375 11.652344 5.3125 11.722656 5.6328125 11.863281 C 5.9570312 12 6.2265625 12.207031 6.4414062 12.484375 C 6.65625 12.761719 6.8085938 13.103516 6.9023438 13.509766 L 5.5429688 14.107422 C 5.4375 13.783203 5.2890625 13.539062 5.0976562 13.375 C 4.9101562 13.207031 4.6875 13.123047 4.4296875 13.123047 C 4.109375 13.123047 3.8632812 13.191406 3.6875 13.328125 C 3.5117188 13.460938 3.421875 13.648438 3.421875 13.890625 L 3.421875 14.189453 C 3.421875 14.396484 3.4804688 14.566406 3.59375 14.699219 C 3.7070312 14.832031 3.8476562 14.9375 4.0195312 15.015625 C 4.1953125 15.089844 4.4335938 15.175781 4.734375 15.273438 C 4.7578125 15.277344 4.78125 15.285156 4.8046875 15.296875 C 4.8320312 15.304688 4.859375 15.3125 4.8828125 15.320312 C 4.9023438 15.328125 4.9179688 15.333984 4.9335938 15.337891 C 4.9492188 15.341797 4.96875 15.347656 4.9882812 15.355469 C 5.4101562 15.488281 5.7578125 15.630859 6.03125 15.783203 C 6.3085938 15.935547 6.5390625 16.160156 6.7265625 16.457031 C 6.9140625 16.753906 7.0078125 17.148438 7.0078125 17.640625 L 7.0078125 18.015625 C 7.0078125 18.503906 6.9023438 18.923828 6.6914062 19.275391 C 6.484375 19.623047 6.1835938 19.888672 5.7851562 20.072266 C 5.390625 20.255859 4.9140625 20.347656 4.3554688 20.347656 C 3.8710938 20.347656 3.4453125 20.275391 3.0820312 20.130859 C 2.7226562 19.986328 2.4257812 19.771484 2.1914062 19.486328 C 1.9609375 19.201172 1.8007812 18.845703 1.7070312 18.419922 L 3.1367188 17.833984 C 3.2382812 18.173828 3.3984375 18.431641 3.6171875 18.607422 C 3.8398438 18.779297 4.1132812 18.865234 4.4375 18.865234 C 4.7695312 18.865234 5.0273438 18.792969 5.2109375 18.648438 C 5.3984375 18.5 5.4921875 18.292969 5.4921875 18.027344 L 5.4921875 17.634766 C 5.4921875 17.443359 5.4375 17.287109 5.328125 17.166016 C 5.21875 17.041016 5.078125 16.941406 4.90625 16.867188 C 4.734375 16.792969 4.5039062 16.710938 4.2148438 16.621094 L 4.1796875 16.609375 L 4.15625 16.597656 L 4.0859375 16.580078 C 3.6289062 16.439453 3.2539062 16.294922 2.9609375 16.146484 C 2.6679688 15.998047 2.4179688 15.769531 2.2109375 15.460938 C 2.0078125 15.148438 1.90625 14.734375 1.90625 14.21875 L 1.90625 13.984375 C 1.90625 13.496094 2.0078125 13.078125 2.2109375 12.730469 C 2.4140625 12.378906 2.7109375 12.111328 3.1015625 11.927734 C 3.4921875 11.744141 3.9609375 11.652344 4.5117188 11.652344 z M 19.371094 11.734375 L 20.882812 11.734375 L 22.253906 11.734375 C 22.71875 11.734375 23.121094 11.824219 23.460938 12.003906 C 23.800781 12.183594 24.0625 12.441406 24.246094 12.777344 C 24.429688 13.113281 24.523438 13.507812 24.523438 13.960938 L 24.523438 14.482422 C 24.523438 14.943359 24.429688 15.34375 24.246094 15.683594 C 24.0625 16.023438 23.800781 16.285156 23.457031 16.46875 C 23.371089 16.514191 23.269468 16.538316 23.175781 16.572266 L 24.820312 20.259766 L 23.074219 20.259766 L 21.601562 16.738281 L 20.882812 16.738281 L 20.882812 20.259766 L 19.371094 20.259766 L 19.371094 11.734375 z M 7.3828125 11.740234 L 12.597656 11.740234 L 12.597656 13.205078 L 10.753906 13.205078 L 10.753906 20.259766 L 9.2304688 20.259766 L 9.2304688 13.205078 L 7.3828125 13.205078 L 7.3828125 11.740234 z M 14.894531 11.740234 L 15.914062 11.740234 L 18.535156 20.259766 L 16.957031 20.259766 L 16.591797 18.917969 L 14.21875 18.917969 L 13.851562 20.259766 L 12.269531 20.259766 L 14.894531 11.740234 z M 25.078125 11.740234 L 30.292969 11.740234 L 30.292969 13.205078 L 28.449219 13.205078 L 28.449219 20.259766 L 26.925781 20.259766 L 26.925781 13.205078 L 25.078125 13.205078 L 25.078125 11.740234 z M 20.882812 13.199219 L 20.882812 15.273438 L 22.238281 15.273438 C 22.382812 15.273438 22.507812 15.242188 22.613281 15.179688 C 22.722656 15.117188 22.804688 15.027344 22.859375 14.910156 C 22.917969 14.792969 22.949219 14.65625 22.953125 14.5 L 22.953125 14.007812 C 22.953125 13.84375 22.921875 13.701172 22.863281 13.580078 C 22.808594 13.458984 22.726562 13.365234 22.617188 13.298828 C 22.511719 13.232422 22.386719 13.199219 22.238281 13.199219 L 20.882812 13.199219 z M 15.40625 14.564453 L 14.615234 17.464844 L 16.195312 17.464844 L 15.40625 14.564453 z " />
</svg>
