<?xml version="1.0" encoding="UTF-8" standalone="no"?>
<svg
   xmlns:dc="http://purl.org/dc/elements/1.1/"
   xmlns:cc="http://creativecommons.org/ns#"
   xmlns:rdf="http://www.w3.org/1999/02/22-rdf-syntax-ns#"
   xmlns:svg="http://www.w3.org/2000/svg"
   xmlns="http://www.w3.org/2000/svg"
   xmlns:sodipodi="http://sodipodi.sourceforge.net/DTD/sodipodi-0.dtd"
   xmlns:inkscape="http://www.inkscape.org/namespaces/inkscape"
   width="32"
   height="32"
   viewBox="0 0 32 32"
   fill="none"
   version="1.1"
   id="svg4"
   sodipodi:docname="sd_button_menu.svg"
   inkscape:version="1.0.2-2 (e86c870879, 2021-01-15)">
  <metadata
     id="metadata10">
    <rdf:RDF>
      <cc:Work
         rdf:about="">
        <dc:format>image/svg+xml</dc:format>
        <dc:type
           rdf:resource="http://purl.org/dc/dcmitype/StillImage" />
        <dc:title></dc:title>
      </cc:Work>
    </rdf:RDF>
  </metadata>
  <defs
     id="defs8" />
  <sodipodi:namedview
     pagecolor="#121728"
     bordercolor="#666666"
     borderopacity="1"
     objecttolerance="10"
     gridtolerance="10"
     guidetolerance="10"
     inkscape:pageopacity="0"
     inkscape:pageshadow="2"
     inkscape:window-width="2498"
     inkscape:window-height="1421"
     id="namedview6"
     showgrid="false"
     inkscape:zoom="31.500001"
     inkscape:cx="19.178735"
     inkscape:cy="15.789615"
     inkscape:window-x="2617"
     inkscape:window-y="-5"
     inkscape:window-maximized="1"
     inkscape:current-layer="svg4"
     inkscape:document-rotation="0" />
  <g
     id="g857"
     inkscape:label="working"
     style="display:none">
    <path
       fill-rule="evenodd"
       clip-rule="evenodd"
       d="M 7.33333,8.66663 C 3.28324,8.66663 0,11.9499 0,16 c 0,4.05 3.28325,7.3333 7.33333,7.3333 H 24.6667 C 28.7168,23.3333 32,20.05 32,16 32,11.9499 28.7168,8.66663 24.6667,8.66663 Z M 20.6667,11.7222 h -9.3334 v 1.7111 h 9.3334 z m -9.3334,6.8445 h 9.3334 v 1.7111 h -9.3334 z m 9.3334,-3.4223 h -9.3334 v 1.7111 h 9.3334 z"
       fill="#ffffff"
       id="path2"
       inkscape:label="vanilla"
       style="display:none" />
    <rect
       style="fill:#fefefe;fill-opacity:1;fill-rule:evenodd;stroke-width:3;stroke-linecap:round;stroke-linejoin:round;stroke-miterlimit:9;stop-color:#000000"
       id="rect837"
       width="32"
       height="14.667"
       x="0"
       y="8.6669998"
       ry="7.3334999"
       inkscape:label="bg" />
    <text
       xml:space="preserve"
       style="font-size:12px;line-height:1.25;font-family:'Century Gothic';-inkscape-font-specification:'Century Gothic';letter-spacing:0px;word-spacing:0px;display:inline;fill:#000000;fill-opacity:1;stroke:none;stroke-opacity:1"
       x="1.2958984"
       y="20.259766"
       id="text871"
       inkscape:label="text"><tspan
         sodipodi:role="line"
         id="tspan869"
         x="1.2958984"
         y="20.259766"
         style="font-style:normal;font-variant:normal;font-weight:bold;font-stretch:semi-condensed;font-size:12px;font-family:Bahnschrift;-inkscape-font-specification:'Bahnschrift Bold Semi-Condensed'"
         rotate="0 0 0 0 0 0">START</tspan></text>
  </g>
  <path
     id="rect835"
     style="fill:#fefefe;fill-opacity:1;fill-rule:evenodd;stroke-width:3;stroke-linecap:round;stroke-linejoin:round;stroke-miterlimit:9;stop-color:#000000"
     inkscape:label="bg"
     d="M 7.3339844 8.6679688 C 3.2712254 8.6679688 0 11.937241 0 16 C 0 20.062759 3.2712254 23.333984 7.3339844 23.333984 L 24.666016 23.333984 C 28.728775 23.333984 32 20.062759 32 16 C 32 11.937241 28.728775 8.6679688 24.666016 8.6679688 L 7.3339844 8.6679688 z M 5.7890625 12.134766 C 6.1675359 12.134766 6.49848 12.197265 6.7832031 12.322266 C 7.0713985 12.443794 7.3109803 12.628471 7.5019531 12.875 C 7.692926 13.121529 7.8307289 13.425997 7.9140625 13.787109 L 6.7050781 14.318359 C 6.6113278 14.030164 6.4806863 13.811849 6.3105469 13.666016 C 6.1438797 13.51671 5.9459643 13.443359 5.7167969 13.443359 C 5.4320738 13.443359 5.210938 13.503472 5.0546875 13.625 C 4.898437 13.743056 4.8203125 13.909722 4.8203125 14.125 L 4.8203125 14.390625 C 4.8203125 14.574653 4.8700084 14.725694 4.9707031 14.84375 C 5.0713979 14.961806 5.1987842 15.055555 5.3515625 15.125 C 5.507813 15.190972 5.7189662 15.26671 5.9863281 15.353516 C 6.0071615 15.356988 6.0279947 15.364583 6.0488281 15.375 C 6.0731338 15.381944 6.0963541 15.38954 6.1171875 15.396484 C 6.1345487 15.403429 6.1501736 15.408637 6.1640625 15.412109 C 6.1779514 15.415582 6.1935763 15.42079 6.2109375 15.427734 C 6.5859387 15.54579 6.8956156 15.671224 7.1386719 15.806641 C 7.3852004 15.942058 7.5911453 16.14236 7.7578125 16.40625 C 7.9244797 16.67014 8.0078125 17.021483 8.0078125 17.458984 L 8.0078125 17.791016 C 8.0078125 18.225045 7.9140631 18.599608 7.7265625 18.912109 C 7.5425341 19.221138 7.2740897 19.455946 6.9199219 19.619141 C 6.5692263 19.782336 6.1449668 19.865234 5.6484375 19.865234 C 5.2178806 19.865234 4.8404958 19.800348 4.5175781 19.671875 C 4.1981327 19.543402 3.9348965 19.353082 3.7265625 19.099609 C 3.5217007 18.846136 3.3782555 18.528864 3.2949219 18.150391 L 4.5644531 17.630859 C 4.6547312 17.932944 4.7977424 18.162109 4.9921875 18.318359 C 5.1901048 18.471138 5.4325078 18.546875 5.7207031 18.546875 C 6.0158429 18.546875 6.2450082 18.481988 6.4082031 18.353516 C 6.5748703 18.221571 6.6582031 18.038846 6.6582031 17.802734 L 6.6582031 17.453125 C 6.6582031 17.282986 6.6108944 17.144749 6.5136719 17.037109 C 6.4164493 16.925998 6.2914501 16.837457 6.1386719 16.771484 C 5.9858936 16.705512 5.7803828 16.632596 5.5234375 16.552734 L 5.4921875 16.541016 L 5.4707031 16.53125 L 5.4082031 16.515625 C 5.0019518 16.390625 4.6686206 16.262804 4.4082031 16.130859 C 4.1477856 15.998915 3.9262159 15.795791 3.7421875 15.521484 C 3.5616314 15.243706 3.4707031 14.87435 3.4707031 14.416016 L 3.4707031 14.208984 C 3.4707031 13.774955 3.5616314 13.402779 3.7421875 13.09375 C 3.9227436 12.781249 4.1859798 12.544054 4.5332031 12.380859 C 4.8804264 12.217664 5.2994776 12.134766 5.7890625 12.134766 z M 18.998047 12.208984 L 20.341797 12.208984 L 21.560547 12.208984 C 21.973743 12.208984 22.330728 12.287543 22.632812 12.447266 C 22.934897 12.606988 23.166883 12.836154 23.330078 13.134766 C 23.493273 13.433378 23.576172 13.784721 23.576172 14.1875 L 23.576172 14.650391 C 23.576172 15.060114 23.493273 15.416666 23.330078 15.71875 C 23.166883 16.020834 22.93251 16.252821 22.626953 16.416016 C 22.550181 16.456608 22.460677 16.477537 22.376953 16.507812 L 23.841797 19.787109 L 22.289062 19.787109 L 20.980469 16.65625 L 20.341797 16.65625 L 20.341797 19.787109 L 18.998047 19.787109 L 18.998047 12.208984 z M 8.3417969 12.212891 L 12.976562 12.212891 L 12.976562 13.515625 L 11.335938 13.515625 L 11.335938 19.787109 L 9.9824219 19.787109 L 9.9824219 13.515625 L 8.3417969 13.515625 L 8.3417969 12.212891 z M 15.017578 12.212891 L 15.923828 12.212891 L 18.251953 19.787109 L 16.851562 19.787109 L 16.525391 18.59375 L 14.416016 18.59375 L 14.091797 19.787109 L 12.685547 19.787109 L 15.017578 12.212891 z M 24.070312 12.212891 L 28.705078 12.212891 L 28.705078 13.515625 L 27.064453 13.515625 L 27.064453 19.787109 L 25.710938 19.787109 L 25.710938 13.515625 L 24.070312 13.515625 L 24.070312 12.212891 z M 20.341797 13.509766 L 20.341797 15.353516 L 21.544922 15.353516 C 21.673395 15.353516 21.783203 15.32704 21.876953 15.271484 C 21.974176 15.215929 22.047092 15.135417 22.095703 15.03125 C 22.147787 14.927083 22.176215 14.804905 22.179688 14.666016 L 22.179688 14.228516 C 22.179688 14.082682 22.153646 13.957249 22.101562 13.849609 C 22.052951 13.74197 21.980035 13.658637 21.882812 13.599609 C 21.789062 13.540581 21.676867 13.509766 21.544922 13.509766 L 20.341797 13.509766 z M 15.470703 14.724609 L 14.767578 17.302734 L 16.173828 17.302734 L 15.470703 14.724609 z " />
</svg>
