<?xml version="1.0" encoding="UTF-8" standalone="no"?>
<svg
   xmlns:dc="http://purl.org/dc/elements/1.1/"
   xmlns:cc="http://creativecommons.org/ns#"
   xmlns:rdf="http://www.w3.org/1999/02/22-rdf-syntax-ns#"
   xmlns:svg="http://www.w3.org/2000/svg"
   xmlns="http://www.w3.org/2000/svg"
   xmlns:sodipodi="http://sodipodi.sourceforge.net/DTD/sodipodi-0.dtd"
   xmlns:inkscape="http://www.inkscape.org/namespaces/inkscape"
   width="32"
   height="32"
   viewBox="0 0 32 32"
   fill="none"
   version="1.1"
   id="svg4"
   sodipodi:docname="sd_button_view.svg"
   inkscape:version="1.0.2-2 (e86c870879, 2021-01-15)">
  <metadata
     id="metadata10">
    <rdf:RDF>
      <cc:Work
         rdf:about="">
        <dc:format>image/svg+xml</dc:format>
        <dc:type
           rdf:resource="http://purl.org/dc/dcmitype/StillImage" />
        <dc:title></dc:title>
      </cc:Work>
    </rdf:RDF>
  </metadata>
  <defs
     id="defs8" />
  <sodipodi:namedview
     pagecolor="#121728"
     bordercolor="#666666"
     borderopacity="1"
     objecttolerance="10"
     gridtolerance="10"
     guidetolerance="10"
     inkscape:pageopacity="0"
     inkscape:pageshadow="2"
     inkscape:window-width="2498"
     inkscape:window-height="1421"
     id="namedview6"
     showgrid="false"
     inkscape:zoom="31.500001"
     inkscape:cx="12.554277"
     inkscape:cy="18.241975"
     inkscape:window-x="2617"
     inkscape:window-y="-5"
     inkscape:window-maximized="1"
     inkscape:current-layer="svg4"
     inkscape:document-rotation="0" />
  <g
     id="g857"
     inkscape:label="working"
     style="display:none">
    <path
       fill-rule="evenodd"
       clip-rule="evenodd"
       d="M 7.33333,8.66663 C 3.28324,8.66663 0,11.9499 0,16 c 0,4.05 3.28325,7.3333 7.33333,7.3333 H 24.6667 C 28.7168,23.3333 32,20.05 32,16 32,11.9499 28.7168,8.66663 24.6667,8.66663 Z M 20.6667,11.7222 h -9.3334 v 1.7111 h 9.3334 z m -9.3334,6.8445 h 9.3334 v 1.7111 h -9.3334 z m 9.3334,-3.4223 h -9.3334 v 1.7111 h 9.3334 z"
       fill="#ffffff"
       id="path2"
       inkscape:label="vanilla"
       style="display:none" />
    <rect
       style="fill:#fefefe;fill-opacity:1;fill-rule:evenodd;stroke-width:3;stroke-linecap:round;stroke-linejoin:round;stroke-miterlimit:9;stop-color:#000000"
       id="rect837"
       width="32"
       height="14.667"
       x="0"
       y="8.6669998"
       ry="7.3334999"
       inkscape:label="bg" />
    <text
       xml:space="preserve"
       style="font-size:9.33333px;line-height:1.25;font-family:'Century Gothic';-inkscape-font-specification:'Century Gothic';letter-spacing:0px;word-spacing:0px;display:inline;fill:#000000;fill-opacity:1;stroke:none;stroke-opacity:1"
       x="2.4010458"
       y="19.31315"
       id="text845"
       inkscape:label="text"><tspan
         sodipodi:role="line"
         id="tspan843"
         x="2.4010458"
         y="19.31315"
         style="font-style:normal;font-variant:normal;font-weight:bold;font-stretch:semi-condensed;font-size:9.33333px;font-family:Bahnschrift;-inkscape-font-specification:'Bahnschrift Bold Semi-Condensed'"
         rotate="0 0 0 0 0 0 0">SELECT</tspan></text>
  </g>
  <path
     id="rect835"
     style="fill:#fefefe;fill-opacity:1;fill-rule:evenodd;stroke-width:3;stroke-linecap:round;stroke-linejoin:round;stroke-miterlimit:9;stop-color:#000000"
     inkscape:label="bg"
     d="M 7.3339844 8.6679688 C 3.2712254 8.6679688 0 11.937241 0 16 C 0 20.062759 3.2712254 23.333984 7.3339844 23.333984 L 24.666016 23.333984 C 28.728775 23.333984 32 20.062759 32 16 C 32 11.937241 28.728775 8.6679688 24.666016 8.6679688 L 7.3339844 8.6679688 z M 4.4414062 11.652344 C 4.875 11.652344 5.25 11.734375 5.5625 11.898438 C 5.875 12.0625 6.1132812 12.302734 6.2773438 12.619141 C 6.4414062 12.931641 6.5234375 13.308594 6.5234375 13.75 L 6.5234375 14.230469 L 5.0742188 14.248047 L 5.0742188 13.761719 C 5.0742188 13.542969 5.0195312 13.373047 4.90625 13.251953 C 4.796875 13.126953 4.640625 13.064453 4.4414062 13.064453 C 4.2304688 13.064453 4.0664062 13.121094 3.9492188 13.234375 C 3.8359375 13.34375 3.78125 13.496094 3.78125 13.691406 L 3.78125 14.259766 C 3.78125 14.419922 3.8203125 14.558594 3.9023438 14.675781 C 3.9882812 14.792969 4.09375 14.892578 4.21875 14.974609 C 4.3476562 15.052734 4.5273438 15.148438 4.7539062 15.261719 C 4.796875 15.28125 4.8398438 15.302734 4.8828125 15.326172 L 5.0234375 15.396484 C 5.03125 15.400391 5.0351562 15.404297 5.0390625 15.408203 L 5.0625 15.419922 C 5.3867188 15.591797 5.6484375 15.751953 5.8476562 15.900391 C 6.046875 16.044922 6.21875 16.25 6.359375 16.515625 C 6.5 16.78125 6.5703125 17.121094 6.5703125 17.535156 L 6.5703125 18.244141 C 6.5703125 18.685547 6.484375 19.064453 6.3164062 19.380859 C 6.1523438 19.693359 5.9140625 19.933594 5.5976562 20.101562 C 5.28125 20.265625 4.9023438 20.347656 4.4609375 20.347656 C 4.015625 20.347656 3.6328125 20.265625 3.3125 20.101562 C 2.9921875 19.933594 2.7460938 19.693359 2.5742188 19.380859 C 2.40625 19.064453 2.3203125 18.685547 2.3203125 18.244141 L 2.3203125 17.787109 L 3.7695312 17.775391 L 3.7695312 18.232422 C 3.7695312 18.447266 3.828125 18.617188 3.9492188 18.742188 C 4.0703125 18.863281 4.2382812 18.923828 4.453125 18.923828 C 4.6640625 18.923828 4.828125 18.863281 4.9414062 18.742188 C 5.0585938 18.621094 5.1171875 18.455078 5.1171875 18.244141 L 5.1171875 17.5 C 5.1171875 17.34375 5.0703125 17.208984 4.9804688 17.095703 C 4.8945312 16.978516 4.78125 16.878906 4.640625 16.796875 C 4.5039062 16.710938 4.3164062 16.609375 4.078125 16.492188 L 4.03125 16.46875 C 4.0195312 16.460938 4.0078125 16.453125 3.9921875 16.445312 L 3.9140625 16.410156 C 3.5976562 16.25 3.328125 16.083984 3.1054688 15.912109 C 2.8828125 15.736328 2.6992188 15.505859 2.5507812 15.220703 C 2.4023438 14.935547 2.328125 14.583984 2.328125 14.166016 L 2.328125 13.726562 C 2.328125 13.292969 2.4101562 12.921875 2.5742188 12.613281 C 2.7421875 12.300781 2.984375 12.0625 3.3007812 11.898438 C 3.6171875 11.734375 3.9960938 11.652344 4.4414062 11.652344 z M 23.027344 11.652344 C 23.457031 11.652344 23.824219 11.738281 24.128906 11.910156 C 24.4375 12.078125 24.671875 12.326172 24.832031 12.654297 C 24.992188 12.978516 25.074219 13.369141 25.074219 13.826172 L 25.074219 14.511719 L 23.601562 14.511719 L 23.601562 13.826172 C 23.601562 13.681641 23.582031 13.556641 23.539062 13.451172 C 23.496094 13.345703 23.429688 13.265625 23.339844 13.210938 C 23.253906 13.152344 23.148438 13.123047 23.027344 13.123047 C 22.910156 13.123047 22.808594 13.150391 22.722656 13.205078 C 22.636719 13.259766 22.570312 13.339844 22.523438 13.445312 C 22.480469 13.550781 22.460938 13.675781 22.460938 13.820312 L 22.460938 18.179688 C 22.460938 18.324219 22.480469 18.449219 22.523438 18.554688 C 22.570312 18.65625 22.636719 18.734375 22.722656 18.789062 C 22.808594 18.84375 22.910156 18.871094 23.027344 18.871094 C 23.152344 18.871094 23.257812 18.84375 23.34375 18.789062 C 23.429688 18.734375 23.496094 18.65625 23.539062 18.554688 C 23.582031 18.449219 23.601562 18.322266 23.601562 18.173828 L 23.601562 17.488281 L 25.074219 17.488281 L 25.074219 18.173828 C 25.074219 18.630859 24.992188 19.023438 24.832031 19.351562 C 24.671875 19.675781 24.4375 19.923828 24.128906 20.095703 C 23.824219 20.263672 23.457031 20.347656 23.027344 20.347656 C 22.597656 20.347656 22.230469 20.263672 21.925781 20.095703 C 21.621094 19.923828 21.386719 19.675781 21.222656 19.351562 C 21.0625 19.027344 20.984375 18.636719 20.984375 18.179688 L 20.984375 13.820312 C 20.984375 13.363281 21.0625 12.972656 21.222656 12.648438 C 21.386719 12.324219 21.621094 12.078125 21.925781 11.910156 C 22.230469 11.738281 22.597656 11.652344 23.027344 11.652344 z M 7.4960938 11.740234 L 8.9492188 11.740234 L 11.28125 11.740234 L 11.28125 13.158203 L 8.9492188 13.158203 L 8.9492188 15.320312 L 10.988281 15.320312 L 10.988281 16.732422 L 8.9492188 16.732422 L 8.9492188 18.841797 L 11.28125 18.841797 L 11.28125 20.259766 L 8.9492188 20.259766 L 7.4960938 20.259766 L 7.4960938 11.740234 z M 12.03125 11.740234 L 13.484375 11.740234 L 13.484375 18.865234 L 15.699219 18.865234 L 15.699219 20.259766 L 13.484375 20.259766 L 12.03125 20.259766 L 12.03125 11.740234 z M 16.449219 11.740234 L 17.902344 11.740234 L 20.234375 11.740234 L 20.234375 13.158203 L 17.902344 13.158203 L 17.902344 15.320312 L 19.941406 15.320312 L 19.941406 16.732422 L 17.902344 16.732422 L 17.902344 18.841797 L 20.234375 18.841797 L 20.234375 20.259766 L 17.902344 20.259766 L 16.449219 20.259766 L 16.449219 11.740234 z M 25.414062 11.740234 L 29.679688 11.740234 L 29.679688 13.134766 L 28.273438 13.134766 L 28.273438 20.259766 L 26.820312 20.259766 L 26.820312 13.134766 L 25.414062 13.134766 L 25.414062 11.740234 z " />
</svg>
