<?xml version="1.0" encoding="UTF-8" standalone="no"?>
<svg
   xmlns:dc="http://purl.org/dc/elements/1.1/"
   xmlns:cc="http://creativecommons.org/ns#"
   xmlns:rdf="http://www.w3.org/1999/02/22-rdf-syntax-ns#"
   xmlns:svg="http://www.w3.org/2000/svg"
   xmlns="http://www.w3.org/2000/svg"
   xmlns:sodipodi="http://sodipodi.sourceforge.net/DTD/sodipodi-0.dtd"
   xmlns:inkscape="http://www.inkscape.org/namespaces/inkscape"
   width="32"
   height="32"
   viewBox="0 0 32 32"
   fill="none"
   version="1.1"
   id="svg4"
   sodipodi:docname="sd_button_view.svg"
   inkscape:version="1.0.2-2 (e86c870879, 2021-01-15)">
  <metadata
     id="metadata10">
    <rdf:RDF>
      <cc:Work
         rdf:about="">
        <dc:format>image/svg+xml</dc:format>
        <dc:type
           rdf:resource="http://purl.org/dc/dcmitype/StillImage" />
        <dc:title></dc:title>
      </cc:Work>
    </rdf:RDF>
  </metadata>
  <defs
     id="defs8" />
  <sodipodi:namedview
     pagecolor="#121728"
     bordercolor="#666666"
     borderopacity="1"
     objecttolerance="10"
     gridtolerance="10"
     guidetolerance="10"
     inkscape:pageopacity="0"
     inkscape:pageshadow="2"
     inkscape:window-width="2498"
     inkscape:window-height="1421"
     id="namedview6"
     showgrid="false"
     inkscape:zoom="31.500001"
     inkscape:cx="20.217433"
     inkscape:cy="18.241975"
     inkscape:window-x="2617"
     inkscape:window-y="-5"
     inkscape:window-maximized="1"
     inkscape:current-layer="svg4"
     inkscape:document-rotation="0" />
  <g
     id="g857"
     inkscape:label="working"
     style="display:none">
    <path
       fill-rule="evenodd"
       clip-rule="evenodd"
       d="M 7.33333,8.66663 C 3.28324,8.66663 0,11.9499 0,16 c 0,4.05 3.28325,7.3333 7.33333,7.3333 H 24.6667 C 28.7168,23.3333 32,20.05 32,16 32,11.9499 28.7168,8.66663 24.6667,8.66663 Z M 20.6667,11.7222 h -9.3334 v 1.7111 h 9.3334 z m -9.3334,6.8445 h 9.3334 v 1.7111 h -9.3334 z m 9.3334,-3.4223 h -9.3334 v 1.7111 h 9.3334 z"
       fill="#ffffff"
       id="path2"
       inkscape:label="vanilla"
       style="display:none" />
    <rect
       style="fill:#fefefe;fill-opacity:1;fill-rule:evenodd;stroke-width:3;stroke-linecap:round;stroke-linejoin:round;stroke-miterlimit:9;stop-color:#000000"
       id="rect837"
       width="32"
       height="14.667"
       x="0"
       y="8.6669998"
       ry="7.3334999"
       inkscape:label="bg" />
    <text
       xml:space="preserve"
       style="font-size:9.33333px;line-height:1.25;font-family:'Century Gothic';-inkscape-font-specification:'Century Gothic';letter-spacing:0px;word-spacing:0px;display:inline;fill:#000000;fill-opacity:1;stroke:none;stroke-opacity:1"
       x="2.4010458"
       y="19.31315"
       id="text845"
       inkscape:label="text"><tspan
         sodipodi:role="line"
         id="tspan843"
         x="2.4010458"
         y="19.31315"
         style="font-style:normal;font-variant:normal;font-weight:bold;font-stretch:semi-condensed;font-size:9.33333px;font-family:Bahnschrift;-inkscape-font-specification:'Bahnschrift Bold Semi-Condensed'"
         rotate="0 0 0 0 0 0 0">SELECT</tspan></text>
  </g>
  <path
     id="rect835"
     style="display:inline;fill:#fefefe;fill-opacity:1;fill-rule:evenodd;stroke-width:3;stroke-linecap:round;stroke-linejoin:round;stroke-miterlimit:9;stop-color:#000000"
     inkscape:label="bg"
     d="M 7.3339844 8.6679688 C 3.2712254 8.6679688 0 11.937241 0 16 C 0 20.062759 3.2712254 23.333984 7.3339844 23.333984 L 24.666016 23.333984 C 28.728775 23.333984 32 20.062759 32 16 C 32 11.937241 28.728775 8.6679688 24.666016 8.6679688 L 7.3339844 8.6679688 z M 5.7265625 12.134766 C 6.1119804 12.134766 6.4429245 12.207682 6.7207031 12.353516 C 6.9984818 12.499349 7.2115881 12.71289 7.3574219 12.994141 C 7.5032557 13.271919 7.5761719 13.607638 7.5761719 14 L 7.5761719 14.427734 L 6.2890625 14.443359 L 6.2890625 14.009766 C 6.2890625 13.815321 6.2393666 13.66428 6.1386719 13.556641 C 6.0414493 13.445529 5.9036464 13.390625 5.7265625 13.390625 C 5.5390619 13.390625 5.3932295 13.440321 5.2890625 13.541016 C 5.1883677 13.638238 5.1386719 13.773654 5.1386719 13.947266 L 5.1386719 14.453125 C 5.1386719 14.595487 5.17513 14.718099 5.2480469 14.822266 C 5.324436 14.926433 5.4181854 15.014974 5.5292969 15.087891 C 5.6438806 15.157335 5.8005636 15.243055 6.0019531 15.34375 C 6.0401477 15.361111 6.0789929 15.379557 6.1171875 15.400391 L 6.2421875 15.462891 C 6.249132 15.466363 6.2543403 15.471137 6.2578125 15.474609 L 6.2792969 15.484375 C 6.5674922 15.637153 6.7994786 15.780165 6.9765625 15.912109 C 7.1536464 16.040582 7.3046871 16.222873 7.4296875 16.458984 C 7.5546879 16.695096 7.6171875 16.997178 7.6171875 17.365234 L 7.6171875 17.994141 C 7.6171875 18.386503 7.5418842 18.724608 7.3925781 19.005859 C 7.2467443 19.283638 7.033204 19.497178 6.7519531 19.646484 C 6.4707022 19.792318 6.1345499 19.865234 5.7421875 19.865234 C 5.3463529 19.865234 5.0054262 19.792318 4.7207031 19.646484 C 4.43598 19.497178 4.2172314 19.283638 4.0644531 19.005859 C 3.9151471 18.724608 3.8417969 18.386503 3.8417969 17.994141 L 3.8417969 17.587891 L 5.1269531 17.578125 L 5.1269531 17.984375 C 5.1269531 18.175348 5.1814233 18.326389 5.2890625 18.4375 C 5.3967017 18.545139 5.5453553 18.599609 5.7363281 18.599609 C 5.9238287 18.599609 6.0692271 18.545139 6.1699219 18.4375 C 6.2740889 18.329861 6.3261719 18.181641 6.3261719 17.994141 L 6.3261719 17.333984 C 6.3261719 17.195095 6.2849395 17.075304 6.2050781 16.974609 C 6.128689 16.870442 6.0292973 16.781901 5.9042969 16.708984 C 5.7827687 16.632595 5.6161031 16.541667 5.4042969 16.4375 L 5.3613281 16.416016 C 5.3509114 16.409071 5.3400608 16.403429 5.3261719 16.396484 L 5.2578125 16.365234 C 4.9765616 16.222873 4.7369798 16.074653 4.5390625 15.921875 C 4.3411452 15.765625 4.1768667 15.560114 4.0449219 15.306641 C 3.912977 15.053168 3.8457031 14.74067 3.8457031 14.369141 L 3.8457031 13.978516 C 3.8457031 13.593098 3.9186193 13.264541 4.0644531 12.990234 C 4.2137592 12.712456 4.4296866 12.499349 4.7109375 12.353516 C 4.9921884 12.207682 5.3307279 12.134766 5.7265625 12.134766 z M 22.248047 12.134766 C 22.629993 12.134766 22.955728 12.212456 23.226562 12.365234 C 23.500869 12.51454 23.709201 12.733723 23.851562 13.025391 C 23.993924 13.313586 24.064453 13.662108 24.064453 14.068359 L 24.064453 14.677734 L 22.757812 14.677734 L 22.757812 14.068359 C 22.757812 13.939887 22.739366 13.828125 22.701172 13.734375 C 22.662977 13.640625 22.603299 13.570096 22.523438 13.521484 C 22.447048 13.469401 22.355686 13.443359 22.248047 13.443359 C 22.14388 13.443359 22.052952 13.467014 21.976562 13.515625 C 21.900173 13.564236 21.840495 13.634765 21.798828 13.728516 C 21.760634 13.822266 21.742188 13.934027 21.742188 14.0625 L 21.742188 17.9375 C 21.742188 18.065973 21.760634 18.177734 21.798828 18.271484 C 21.840495 18.361762 21.900173 18.429904 21.976562 18.478516 C 22.052952 18.527127 22.14388 18.552734 22.248047 18.552734 C 22.359158 18.552734 22.452908 18.527127 22.529297 18.478516 C 22.605686 18.429904 22.662977 18.361762 22.701172 18.271484 C 22.739366 18.177734 22.757812 18.063585 22.757812 17.931641 L 22.757812 17.322266 L 24.064453 17.322266 L 24.064453 17.931641 C 24.064453 18.337892 23.993924 18.686848 23.851562 18.978516 C 23.709201 19.266711 23.500869 19.487847 23.226562 19.640625 C 22.955728 19.789931 22.629993 19.865234 22.248047 19.865234 C 21.866101 19.865234 21.538412 19.789931 21.267578 19.640625 C 20.996744 19.487847 20.788412 19.266711 20.642578 18.978516 C 20.500217 18.69032 20.429688 18.343751 20.429688 17.9375 L 20.429688 14.0625 C 20.429688 13.656249 20.500217 13.30968 20.642578 13.021484 C 20.788412 12.733289 20.996744 12.51454 21.267578 12.365234 C 21.538412 12.212456 21.866101 12.134766 22.248047 12.134766 z M 8.4394531 12.212891 L 9.7324219 12.212891 L 11.804688 12.212891 L 11.804688 13.474609 L 9.7324219 13.474609 L 9.7324219 15.396484 L 11.544922 15.396484 L 11.544922 16.650391 L 9.7324219 16.650391 L 9.7324219 18.525391 L 11.804688 18.525391 L 11.804688 19.787109 L 9.7324219 19.787109 L 8.4394531 19.787109 L 8.4394531 12.212891 z M 12.470703 12.212891 L 13.763672 12.212891 L 13.763672 18.546875 L 15.732422 18.546875 L 15.732422 19.787109 L 13.763672 19.787109 L 12.470703 19.787109 L 12.470703 12.212891 z M 16.398438 12.212891 L 17.689453 12.212891 L 19.763672 12.212891 L 19.763672 13.474609 L 17.689453 13.474609 L 17.689453 15.396484 L 19.501953 15.396484 L 19.501953 16.650391 L 17.689453 16.650391 L 17.689453 18.525391 L 19.763672 18.525391 L 19.763672 19.787109 L 17.689453 19.787109 L 16.398438 19.787109 L 16.398438 12.212891 z M 24.367188 12.212891 L 28.158203 12.212891 L 28.158203 13.453125 L 26.908203 13.453125 L 26.908203 19.787109 L 25.617188 19.787109 L 25.617188 13.453125 L 24.367188 13.453125 L 24.367188 12.212891 z " />
</svg>
