<?xml version="1.0" encoding="UTF-8" standalone="no"?>
<svg
   xmlns:dc="http://purl.org/dc/elements/1.1/"
   xmlns:cc="http://creativecommons.org/ns#"
   xmlns:rdf="http://www.w3.org/1999/02/22-rdf-syntax-ns#"
   xmlns:svg="http://www.w3.org/2000/svg"
   xmlns="http://www.w3.org/2000/svg"
   xmlns:sodipodi="http://sodipodi.sourceforge.net/DTD/sodipodi-0.dtd"
   xmlns:inkscape="http://www.inkscape.org/namespaces/inkscape"
   width="32"
   height="32"
   viewBox="0 0 32 32"
   fill="none"
   version="1.1"
   id="svg4"
   sodipodi:docname="sd_button_menu.svg"
   inkscape:version="1.0.2-2 (e86c870879, 2021-01-15)">
  <metadata
     id="metadata10">
    <rdf:RDF>
      <cc:Work
         rdf:about="">
        <dc:format>image/svg+xml</dc:format>
        <dc:type
           rdf:resource="http://purl.org/dc/dcmitype/StillImage" />
        <dc:title></dc:title>
      </cc:Work>
    </rdf:RDF>
  </metadata>
  <defs
     id="defs8" />
  <sodipodi:namedview
     pagecolor="#121728"
     bordercolor="#666666"
     borderopacity="1"
     objecttolerance="10"
     gridtolerance="10"
     guidetolerance="10"
     inkscape:pageopacity="0"
     inkscape:pageshadow="2"
     inkscape:window-width="2498"
     inkscape:window-height="1421"
     id="namedview6"
     showgrid="false"
     inkscape:zoom="22.273864"
     inkscape:cx="13.524157"
     inkscape:cy="13.256578"
     inkscape:window-x="2617"
     inkscape:window-y="-5"
     inkscape:window-maximized="1"
     inkscape:current-layer="svg4" />
  <g
     id="g857"
     inkscape:label="working"
     style="display:none">
    <path
       fill-rule="evenodd"
       clip-rule="evenodd"
       d="M 7.33333,8.66663 C 3.28324,8.66663 0,11.9499 0,16 c 0,4.05 3.28325,7.3333 7.33333,7.3333 H 24.6667 C 28.7168,23.3333 32,20.05 32,16 32,11.9499 28.7168,8.66663 24.6667,8.66663 Z M 20.6667,11.7222 h -9.3334 v 1.7111 h 9.3334 z m -9.3334,6.8445 h 9.3334 v 1.7111 h -9.3334 z m 9.3334,-3.4223 h -9.3334 v 1.7111 h 9.3334 z"
       fill="#ffffff"
       id="path2"
       inkscape:label="vanilla" />
    <rect
       style="fill:#fefefe;fill-opacity:1;fill-rule:evenodd;stroke-width:3;stroke-linecap:round;stroke-linejoin:round;stroke-miterlimit:9;stop-color:#000000"
       id="rect837"
       width="32"
       height="14.667"
       x="0"
       y="8.6669998"
       ry="7.3334999"
       inkscape:label="bg" />
    <text
       xml:space="preserve"
       style="font-size:8px;line-height:1.25;font-family:'Century Gothic';-inkscape-font-specification:'Century Gothic';letter-spacing:0px;word-spacing:0px;display:inline;fill:#000000;fill-opacity:1;stroke:none;stroke-opacity:1"
       x="4.3710938"
       y="18.839844"
       id="text871"
       inkscape:label="text"><tspan
         sodipodi:role="line"
         id="tspan869"
         x="4.3710938"
         y="18.839844"
         style="font-style:normal;font-variant:normal;font-weight:normal;font-stretch:normal;font-size:8px;font-family:Bahnschrift;-inkscape-font-specification:Bahnschrift"
         rotate="0 0 0 0 0 0">START</tspan></text>
  </g>
  <path
     id="rect873"
     style="fill:#fefefe;fill-opacity:1;fill-rule:evenodd;stroke-width:3;stroke-linecap:round;stroke-linejoin:round;stroke-miterlimit:9;stop-color:#000000"
     inkscape:label="bg"
     d="M 7.3339844 8.6679688 C 3.2712254 8.6679688 0 11.937241 0 16 C 0 20.062759 3.2712254 23.333984 7.3339844 23.333984 L 24.666016 23.333984 C 28.728775 23.333984 32 20.062759 32 16 C 32 11.937241 28.728775 8.6679688 24.666016 8.6679688 L 7.3339844 8.6679688 z M 7.0078125 13.101562 C 7.2109375 13.101562 7.4101562 13.123698 7.6054688 13.167969 C 7.8033854 13.21224 7.9973958 13.278646 8.1875 13.367188 C 8.3802083 13.453125 8.5690104 13.5625 8.7539062 13.695312 L 8.3007812 14.328125 C 8.0846354 14.169271 7.8684896 14.050781 7.6523438 13.972656 C 7.4388021 13.891927 7.2239583 13.851562 7.0078125 13.851562 C 6.6197917 13.851562 6.3177083 13.929688 6.1015625 14.085938 C 5.8880208 14.239583 5.78125 14.458333 5.78125 14.742188 L 5.78125 14.746094 C 5.78125 14.941406 5.8359375 15.095052 5.9453125 15.207031 C 6.0572917 15.31901 6.1953125 15.402344 6.359375 15.457031 C 6.5260417 15.509115 6.7565104 15.563802 7.0507812 15.621094 C 7.0611979 15.623698 7.0703125 15.626302 7.078125 15.628906 C 7.0885417 15.628906 7.0989583 15.630208 7.109375 15.632812 C 7.1223958 15.635417 7.1367188 15.638021 7.1523438 15.640625 C 7.1679688 15.643229 7.1822917 15.645833 7.1953125 15.648438 C 7.5390625 15.71875 7.8255208 15.802083 8.0546875 15.898438 C 8.2864583 15.994792 8.4791667 16.151042 8.6328125 16.367188 C 8.7890625 16.580729 8.8671875 16.873698 8.8671875 17.246094 L 8.8671875 17.253906 C 8.8671875 17.60026 8.7851562 17.897135 8.6210938 18.144531 C 8.4570312 18.389323 8.21875 18.576823 7.90625 18.707031 C 7.5963542 18.834635 7.2213542 18.898438 6.78125 18.898438 C 6.5078125 18.898438 6.2486979 18.872396 6.0039062 18.820312 C 5.7591146 18.768229 5.5299479 18.690104 5.3164062 18.585938 C 5.1054688 18.481771 4.9075521 18.351562 4.7226562 18.195312 L 5.21875 17.585938 C 5.4348958 17.773438 5.6731771 17.914062 5.9335938 18.007812 C 6.1940104 18.101562 6.4765625 18.148438 6.78125 18.148438 C 7.1927083 18.148438 7.5117188 18.072917 7.7382812 17.921875 C 7.9648438 17.768229 8.078125 17.552083 8.078125 17.273438 L 8.078125 17.269531 C 8.078125 17.071615 8.0260417 16.915365 7.921875 16.800781 C 7.8203125 16.683594 7.6875 16.597656 7.5234375 16.542969 C 7.3619792 16.485677 7.1523437 16.433594 6.8945312 16.386719 C 6.8867188 16.384115 6.8776042 16.382812 6.8671875 16.382812 C 6.859375 16.382812 6.8515625 16.38151 6.84375 16.378906 L 6.7851562 16.367188 C 6.4049479 16.302083 6.0950521 16.229167 5.8554688 16.148438 C 5.6184896 16.065104 5.4153646 15.915365 5.2460938 15.699219 C 5.0768229 15.480469 4.9921875 15.170573 4.9921875 14.769531 L 4.9921875 14.765625 C 4.9921875 14.414062 5.0703125 14.114583 5.2265625 13.867188 C 5.3854167 13.617188 5.6158854 13.427083 5.9179688 13.296875 C 6.2200521 13.166667 6.5833333 13.101563 7.0078125 13.101562 z M 18.835938 13.15625 L 19.632812 13.15625 L 21.089844 13.15625 C 21.417969 13.15625 21.705729 13.223958 21.953125 13.359375 C 22.203125 13.494792 22.395833 13.6875 22.53125 13.9375 C 22.669271 14.184896 22.738281 14.471354 22.738281 14.796875 C 22.738281 15.122396 22.669271 15.410156 22.53125 15.660156 C 22.393229 15.907552 22.199219 16.098958 21.949219 16.234375 C 21.860505 16.282934 21.760869 16.312604 21.662109 16.34375 L 22.976562 18.839844 L 22.03125 18.839844 L 20.818359 16.4375 L 19.632812 16.4375 L 19.632812 18.839844 L 18.835938 18.839844 L 18.835938 13.15625 z M 9.21875 13.160156 L 13.226562 13.160156 L 13.226562 13.917969 L 11.621094 13.917969 L 11.621094 18.839844 L 10.824219 18.839844 L 10.824219 13.917969 L 9.21875 13.917969 L 9.21875 13.160156 z M 15.203125 13.160156 L 15.882812 13.160156 L 17.976562 18.839844 L 17.117188 18.839844 L 16.689453 17.59375 L 14.396484 17.59375 L 13.96875 18.839844 L 13.109375 18.839844 L 15.203125 13.160156 z M 23.269531 13.160156 L 27.277344 13.160156 L 27.277344 13.917969 L 25.671875 13.917969 L 25.671875 18.839844 L 24.875 18.839844 L 24.875 13.917969 L 23.269531 13.917969 L 23.269531 13.160156 z M 19.632812 13.914062 L 19.632812 15.679688 L 21.121094 15.679688 C 21.272135 15.679688 21.40625 15.643229 21.523438 15.570312 C 21.640625 15.497396 21.730469 15.394531 21.792969 15.261719 C 21.858073 15.126302 21.890625 14.971354 21.890625 14.796875 C 21.890625 14.622396 21.858073 14.46875 21.792969 14.335938 C 21.730469 14.200521 21.640625 14.096354 21.523438 14.023438 C 21.408854 13.950521 21.27474 13.914062 21.121094 13.914062 L 19.632812 13.914062 z M 15.542969 14.257812 L 14.65625 16.835938 L 16.429688 16.835938 L 15.542969 14.257812 z " />
</svg>
