<?xml version="1.0" encoding="UTF-8" standalone="no"?>
<svg
   xmlns:dc="http://purl.org/dc/elements/1.1/"
   xmlns:cc="http://creativecommons.org/ns#"
   xmlns:rdf="http://www.w3.org/1999/02/22-rdf-syntax-ns#"
   xmlns:svg="http://www.w3.org/2000/svg"
   xmlns="http://www.w3.org/2000/svg"
   xmlns:sodipodi="http://sodipodi.sourceforge.net/DTD/sodipodi-0.dtd"
   xmlns:inkscape="http://www.inkscape.org/namespaces/inkscape"
   width="32"
   height="32"
   viewBox="0 0 32 32"
   fill="none"
   version="1.1"
   id="svg4"
   sodipodi:docname="sd_button_view.svg"
   inkscape:version="1.0.2-2 (e86c870879, 2021-01-15)">
  <metadata
     id="metadata10">
    <rdf:RDF>
      <cc:Work
         rdf:about="">
        <dc:format>image/svg+xml</dc:format>
        <dc:type
           rdf:resource="http://purl.org/dc/dcmitype/StillImage" />
        <dc:title></dc:title>
      </cc:Work>
    </rdf:RDF>
  </metadata>
  <defs
     id="defs8" />
  <sodipodi:namedview
     pagecolor="#121728"
     bordercolor="#666666"
     borderopacity="1"
     objecttolerance="10"
     gridtolerance="10"
     guidetolerance="10"
     inkscape:pageopacity="0"
     inkscape:pageshadow="2"
     inkscape:window-width="2498"
     inkscape:window-height="1421"
     id="namedview6"
     showgrid="false"
     inkscape:zoom="22.273864"
     inkscape:cx="13.524157"
     inkscape:cy="13.256578"
     inkscape:window-x="2617"
     inkscape:window-y="-5"
     inkscape:window-maximized="1"
     inkscape:current-layer="svg4" />
  <g
     id="g857"
     inkscape:label="working"
     style="display:none">
    <path
       fill-rule="evenodd"
       clip-rule="evenodd"
       d="M 7.33333,8.66663 C 3.28324,8.66663 0,11.9499 0,16 c 0,4.05 3.28325,7.3333 7.33333,7.3333 H 24.6667 C 28.7168,23.3333 32,20.05 32,16 32,11.9499 28.7168,8.66663 24.6667,8.66663 Z M 20.6667,11.7222 h -9.3334 v 1.7111 h 9.3334 z m -9.3334,6.8445 h 9.3334 v 1.7111 h -9.3334 z m 9.3334,-3.4223 h -9.3334 v 1.7111 h 9.3334 z"
       fill="#ffffff"
       id="path2"
       inkscape:label="vanilla" />
    <rect
       style="fill:#fefefe;fill-opacity:1;fill-rule:evenodd;stroke-width:3;stroke-linecap:round;stroke-linejoin:round;stroke-miterlimit:9;stop-color:#000000"
       id="rect837"
       width="32"
       height="14.667"
       x="0"
       y="8.6669998"
       ry="7.3334999"
       inkscape:label="bg" />
    <text
       xml:space="preserve"
       style="font-size:8px;line-height:1.25;font-family:'Century Gothic';-inkscape-font-specification:'Century Gothic';letter-spacing:0px;word-spacing:0px;display:inline;fill:#000000;fill-opacity:1;stroke:none;stroke-opacity:1"
       x="1.8867188"
       y="18.839844"
       id="text845"
       inkscape:label="text"><tspan
         sodipodi:role="line"
         id="tspan843"
         x="1.8867188"
         y="18.839844"
         style="font-style:normal;font-variant:normal;font-weight:normal;font-stretch:normal;font-size:8px;font-family:Bahnschrift;-inkscape-font-specification:Bahnschrift"
         rotate="0 0 0 0 0 0 0">SELECT</tspan></text>
  </g>
  <path
     id="rect847"
     style="fill:#fefefe;fill-rule:evenodd;stroke-width:3;stroke-linecap:round;stroke-linejoin:round;stroke-miterlimit:9;stop-color:#000000;fill-opacity:1"
     inkscape:label="bg"
     d="M 7.3339844 8.6679688 C 3.2712254 8.6679688 0 11.937241 0 16 C 0 20.062759 3.2712254 23.333984 7.3339844 23.333984 L 24.666016 23.333984 C 28.728775 23.333984 32 20.062759 32 16 C 32 11.937241 28.728775 8.6679688 24.666016 8.6679688 L 7.3339844 8.6679688 z M 4.5234375 13.101562 C 4.7265625 13.101562 4.9257812 13.123698 5.1210938 13.167969 C 5.3190104 13.21224 5.5130208 13.278646 5.703125 13.367188 C 5.8958333 13.453125 6.0846354 13.5625 6.2695312 13.695312 L 5.8164062 14.328125 C 5.6002604 14.169271 5.3841146 14.050781 5.1679688 13.972656 C 4.9544271 13.891927 4.7395833 13.851562 4.5234375 13.851562 C 4.1354167 13.851562 3.8333333 13.929688 3.6171875 14.085938 C 3.4036458 14.239583 3.296875 14.458333 3.296875 14.742188 L 3.296875 14.746094 C 3.296875 14.941406 3.3515625 15.095052 3.4609375 15.207031 C 3.5729167 15.31901 3.7109375 15.402344 3.875 15.457031 C 4.0416667 15.509115 4.2721354 15.563802 4.5664062 15.621094 C 4.5768229 15.623698 4.5859375 15.626302 4.59375 15.628906 C 4.6041667 15.628906 4.6145833 15.630208 4.625 15.632812 C 4.6380208 15.635417 4.6523438 15.638021 4.6679688 15.640625 C 4.6835938 15.643229 4.6979167 15.645833 4.7109375 15.648438 C 5.0546875 15.71875 5.3411458 15.802083 5.5703125 15.898438 C 5.8020833 15.994792 5.9947917 16.151042 6.1484375 16.367188 C 6.3046875 16.580729 6.3828125 16.873698 6.3828125 17.246094 L 6.3828125 17.253906 C 6.3828125 17.60026 6.3007812 17.897135 6.1367188 18.144531 C 5.9726562 18.389323 5.734375 18.576823 5.421875 18.707031 C 5.1119792 18.834635 4.7369792 18.898438 4.296875 18.898438 C 4.0234375 18.898438 3.7643229 18.872396 3.5195312 18.820312 C 3.2747396 18.768229 3.0455729 18.690104 2.8320312 18.585938 C 2.6210938 18.481771 2.4231771 18.351562 2.2382812 18.195312 L 2.734375 17.585938 C 2.9505208 17.773438 3.1888021 17.914062 3.4492188 18.007812 C 3.7096354 18.101562 3.9921875 18.148438 4.296875 18.148438 C 4.7083333 18.148438 5.0273438 18.072917 5.2539062 17.921875 C 5.4804688 17.768229 5.59375 17.552083 5.59375 17.273438 L 5.59375 17.269531 C 5.59375 17.071615 5.5416667 16.915365 5.4375 16.800781 C 5.3359375 16.683594 5.203125 16.597656 5.0390625 16.542969 C 4.8776042 16.485677 4.6679688 16.433594 4.4101562 16.386719 C 4.4023438 16.384115 4.3932292 16.382812 4.3828125 16.382812 C 4.375 16.382812 4.3671875 16.38151 4.359375 16.378906 L 4.3007812 16.367188 C 3.9205729 16.302083 3.6106771 16.229167 3.3710938 16.148438 C 3.1341146 16.065104 2.9309896 15.915365 2.7617188 15.699219 C 2.5924479 15.480469 2.5078125 15.170573 2.5078125 14.769531 L 2.5078125 14.765625 C 2.5078125 14.414062 2.5859375 14.114583 2.7421875 13.867188 C 2.9010417 13.617188 3.1315104 13.427083 3.4335938 13.296875 C 3.7356771 13.166667 4.0989583 13.101563 4.5234375 13.101562 z M 23.445312 13.101562 C 23.770833 13.101562 24.070313 13.171875 24.34375 13.3125 C 24.617188 13.450521 24.845052 13.647135 25.027344 13.902344 C 25.21224 14.157552 25.33724 14.453125 25.402344 14.789062 L 24.585938 14.789062 C 24.536458 14.611979 24.453125 14.454427 24.335938 14.316406 C 24.221354 14.175781 24.085937 14.067708 23.929688 13.992188 C 23.773438 13.916667 23.611979 13.878906 23.445312 13.878906 C 23.213542 13.878906 23.010417 13.934896 22.835938 14.046875 C 22.661458 14.158854 22.526042 14.316406 22.429688 14.519531 C 22.333333 14.720052 22.285156 14.954427 22.285156 15.222656 L 22.285156 16.78125 C 22.285156 17.046875 22.333333 17.28125 22.429688 17.484375 C 22.526042 17.6875 22.661458 17.845052 22.835938 17.957031 C 23.010417 18.066406 23.213542 18.121094 23.445312 18.121094 C 23.614583 18.121094 23.776042 18.085938 23.929688 18.015625 C 24.085938 17.945312 24.221354 17.841146 24.335938 17.703125 C 24.453125 17.565104 24.536458 17.401042 24.585938 17.210938 L 25.402344 17.210938 C 25.33724 17.546875 25.21224 17.842448 25.027344 18.097656 C 24.842448 18.352865 24.613281 18.550781 24.339844 18.691406 C 24.066406 18.829427 23.768229 18.898438 23.445312 18.898438 C 23.052083 18.898438 22.705729 18.811198 22.40625 18.636719 C 22.109375 18.46224 21.878906 18.214844 21.714844 17.894531 C 21.550781 17.574219 21.46875 17.203125 21.46875 16.78125 L 21.46875 15.222656 C 21.46875 14.800781 21.550781 14.429688 21.714844 14.109375 C 21.878906 13.789062 22.109375 13.541667 22.40625 13.367188 C 22.705729 13.190104 23.052083 13.101563 23.445312 13.101562 z M 7.4375 13.160156 L 8.234375 13.160156 L 11.085938 13.160156 L 11.085938 13.917969 L 8.234375 13.917969 L 8.234375 15.640625 L 10.65625 15.640625 L 10.65625 16.398438 L 8.234375 16.398438 L 8.234375 18.082031 L 11.085938 18.082031 L 11.085938 18.839844 L 8.234375 18.839844 L 7.4375 18.839844 L 7.4375 13.160156 z M 12.21875 13.160156 L 13.015625 13.160156 L 13.015625 18.082031 L 15.867188 18.082031 L 15.867188 18.839844 L 13.015625 18.839844 L 12.21875 18.839844 L 12.21875 13.160156 z M 16.804688 13.160156 L 17.601562 13.160156 L 20.453125 13.160156 L 20.453125 13.917969 L 17.601562 13.917969 L 17.601562 15.640625 L 20.023438 15.640625 L 20.023438 16.398438 L 17.601562 16.398438 L 17.601562 18.082031 L 20.453125 18.082031 L 20.453125 18.839844 L 17.601562 18.839844 L 16.804688 18.839844 L 16.804688 13.160156 z M 25.753906 13.160156 L 29.761719 13.160156 L 29.761719 13.917969 L 28.15625 13.917969 L 28.15625 18.839844 L 27.359375 18.839844 L 27.359375 13.917969 L 25.753906 13.917969 L 25.753906 13.160156 z " />
</svg>
