<?xml version="1.0" encoding="UTF-8" standalone="no"?>
<svg
   xmlns:dc="http://purl.org/dc/elements/1.1/"
   xmlns:cc="http://creativecommons.org/ns#"
   xmlns:rdf="http://www.w3.org/1999/02/22-rdf-syntax-ns#"
   xmlns:svg="http://www.w3.org/2000/svg"
   xmlns="http://www.w3.org/2000/svg"
   xmlns:sodipodi="http://sodipodi.sourceforge.net/DTD/sodipodi-0.dtd"
   xmlns:inkscape="http://www.inkscape.org/namespaces/inkscape"
   width="32"
   height="32"
   viewBox="0 0 32 32"
   fill="none"
   version="1.1"
   id="svg4"
   sodipodi:docname="sd_button_menu.svg"
   inkscape:version="1.0.2-2 (e86c870879, 2021-01-15)">
  <metadata
     id="metadata10">
    <rdf:RDF>
      <cc:Work
         rdf:about="">
        <dc:format>image/svg+xml</dc:format>
        <dc:type
           rdf:resource="http://purl.org/dc/dcmitype/StillImage" />
        <dc:title></dc:title>
      </cc:Work>
    </rdf:RDF>
  </metadata>
  <defs
     id="defs8" />
  <sodipodi:namedview
     pagecolor="#121728"
     bordercolor="#666666"
     borderopacity="1"
     objecttolerance="10"
     gridtolerance="10"
     guidetolerance="10"
     inkscape:pageopacity="0"
     inkscape:pageshadow="2"
     inkscape:window-width="2498"
     inkscape:window-height="1421"
     id="namedview6"
     showgrid="false"
     inkscape:zoom="11.136932"
     inkscape:cx="10.532073"
     inkscape:cy="18.790902"
     inkscape:window-x="2617"
     inkscape:window-y="-5"
     inkscape:window-maximized="1"
     inkscape:current-layer="g857"
     inkscape:document-rotation="0" />
  <g
     id="g857"
     inkscape:label="working"
     style="display:inline">
    <path
       fill-rule="evenodd"
       clip-rule="evenodd"
       d="M 7.33333,8.66663 C 3.28324,8.66663 0,11.9499 0,16 c 0,4.05 3.28325,7.3333 7.33333,7.3333 H 24.6667 C 28.7168,23.3333 32,20.05 32,16 32,11.9499 28.7168,8.66663 24.6667,8.66663 Z M 20.6667,11.7222 h -9.3334 v 1.7111 h 9.3334 z m -9.3334,6.8445 h 9.3334 v 1.7111 h -9.3334 z m 9.3334,-3.4223 h -9.3334 v 1.7111 h 9.3334 z"
       fill="#ffffff"
       id="path2"
       inkscape:label="vanilla"
       style="display:none" />
    <path
       id="rect837"
       style="display:inline;fill:#fefefe;fill-opacity:1;fill-rule:evenodd;stroke-width:3;stroke-linecap:round;stroke-linejoin:round;stroke-miterlimit:9;stop-color:#000000"
       inkscape:label="start"
       d="M 7.3339844,8.6679688 C 3.2712254,8.6679688 0,11.937241 0,16 c 0,4.062759 3.2712254,7.333984 7.3339844,7.333984 H 24.666016 C 28.728775,23.333984 32,20.062759 32,16 32,11.937241 28.728775,8.6679688 24.666016,8.6679688 Z M 8.2910156,11.1875 27.230469,16 8.2910156,20.8125 Z" />
    <path
       id="rect853"
       style="display:none;fill:#fefefe;fill-opacity:1;fill-rule:evenodd;stroke-width:3;stroke-linecap:round;stroke-linejoin:round;stroke-miterlimit:9;stop-color:#000000"
       inkscape:label="select"
       d="M 7.3339844,8.6679688 C 3.2712254,8.6679688 0,11.937241 0,16 c 0,4.062759 3.2712254,7.333984 7.3339844,7.333984 H 24.666016 C 28.728775,23.333984 32,20.062759 32,16 32,11.937241 28.728775,8.6679688 24.666016,8.6679688 Z M 8.2597656,11.771484 H 23.740234 v 8.457032 H 8.2597656 Z" />
  </g>
</svg>
